<svg width="18" height="18" viewBox="0 0 18 18" fill="none" xmlns="http://www.w3.org/2000/svg">
<path fill-rule="evenodd" clip-rule="evenodd" d="M17.4016 13.5675C18.1924 14.3595 18.1924 15.6536 17.4016 16.4446L16.4425 17.403C15.6516 18.1941 14.3573 18.1941 13.5664 17.403L9.49121 13.3281L5.41636 17.403C4.62513 18.1941 3.3306 18.1941 2.53976 17.403L1.58101 16.4446C0.789778 15.6536 0.789778 14.3595 1.58101 13.5675L5.65605 9.49266L1.58101 5.41777C0.789778 4.62673 0.789778 3.33175 1.58101 2.54158L2.53976 1.58227C3.3306 0.791223 4.62513 0.791223 5.41636 1.58227L9.49121 5.65715L13.5664 1.58227C14.3573 0.791223 15.6516 0.791223 16.4425 1.58227L17.4016 2.54158C18.1924 3.33175 18.1924 4.62673 17.4016 5.41777L13.3264 9.49266L17.4016 13.5675Z" fill="#FA8315"/>
</svg>
