<svg width="35" height="36" viewBox="0 0 35 36" fill="none" xmlns="http://www.w3.org/2000/svg">
<circle cx="17.5" cy="17.6455" r="17.5" fill="#121212"/>
<path fill-rule="evenodd" clip-rule="evenodd" d="M14.2149 9.14551H21.2901C22.6731 9.14551 23.9996 9.69493 24.9776 10.6729C25.9555 11.6509 26.505 12.9773 26.505 14.3604V21.4455C26.505 22.8285 25.9555 24.155 24.9776 25.1329C23.9996 26.1109 22.6731 26.6603 21.2901 26.6603H14.2149C13.5292 26.6603 12.8503 26.5251 12.2169 26.2624C11.5836 25.9997 11.0083 25.6147 10.5239 25.1294C10.0395 24.6442 9.65562 24.0681 9.39413 23.4343C9.13264 22.8004 8.99871 22.1212 9.00001 21.4356V14.3604C9.00001 12.9773 9.54943 11.6509 10.5274 10.6729C11.5054 9.69493 12.8318 9.14551 14.2149 9.14551ZM23.7321 23.8776C24.3797 23.2299 24.7436 22.3515 24.7436 21.4356V14.3604C24.7436 13.4445 24.3797 12.566 23.7321 11.9184C23.0844 11.2707 22.206 10.9069 21.2901 10.9069H14.2149C13.299 10.9069 12.4205 11.2707 11.7729 11.9184C11.1252 12.566 10.7614 13.4445 10.7614 14.3604V21.4356C10.7614 22.3515 11.1252 23.2299 11.7729 23.8776C12.4205 24.5252 13.299 24.8891 14.2149 24.8891H21.2901C22.206 24.8891 23.0844 24.5252 23.7321 23.8776ZM22.2894 12.3218C22.0737 12.3218 21.8629 12.3859 21.6837 12.506C21.5045 12.626 21.365 12.7966 21.2829 12.9961C21.2008 13.1956 21.1798 13.4149 21.2226 13.6263C21.2654 13.8378 21.3701 14.0317 21.5233 14.1835C21.6765 14.3353 21.8714 14.4382 22.0832 14.4791C22.295 14.52 22.5141 14.497 22.7129 14.4131C22.9116 14.3292 23.0809 14.1881 23.1993 14.0078C23.3177 13.8275 23.3799 13.6161 23.3779 13.4004C23.3779 13.2579 23.3497 13.1169 23.2949 12.9854C23.2401 12.8539 23.1597 12.7345 23.0585 12.6342C22.9573 12.5339 22.8372 12.4547 22.7052 12.4011C22.5732 12.3475 22.4319 12.3205 22.2894 12.3218ZM17.7576 13.3708C16.8604 13.3688 15.9828 13.6332 15.236 14.1304C14.4892 14.6277 13.9068 15.3354 13.5625 16.1639C13.2183 16.9925 13.1277 17.9045 13.3022 18.7846C13.4768 19.6647 13.9086 20.4731 14.543 21.1075C15.1775 21.7419 15.9859 22.1738 16.866 22.3483C17.746 22.5229 18.6581 22.4323 19.4866 22.0881C20.3152 21.7438 21.0229 21.1614 21.5201 20.4146C22.0174 19.6678 22.2817 18.7902 22.2798 17.893C22.2772 16.6944 21.7999 15.5457 20.9524 14.6982C20.1049 13.8507 18.9562 13.3734 17.7576 13.3708ZM17.7576 20.6637C17.2092 20.6656 16.6725 20.5048 16.2156 20.2016C15.7586 19.8983 15.402 19.4663 15.1908 18.9601C14.9795 18.454 14.9232 17.8966 15.029 17.3585C15.1348 16.8204 15.3979 16.3258 15.785 15.9373C16.1721 15.5488 16.6658 15.284 17.2035 15.1762C17.7413 15.0685 18.2988 15.1228 18.8057 15.3322C19.3126 15.5417 19.7459 15.8968 20.0508 16.3526C20.3556 16.8085 20.5184 17.3446 20.5184 17.893C20.5184 18.6261 20.2279 19.3293 19.7104 19.8487C19.1929 20.368 18.4907 20.6611 17.7576 20.6637Z" fill="white"/>
</svg>
