<svg width="35" height="36" viewBox="0 0 35 36" fill="none" xmlns="http://www.w3.org/2000/svg">
<circle cx="17.5" cy="17.6455" r="17.5" fill="#121212"/>
<path fill-rule="evenodd" clip-rule="evenodd" d="M27.09 10.4185C27.2988 11.3059 26.7486 12.1945 25.8612 12.4033C24.9738 12.6121 24.0852 12.062 23.8764 11.1746C23.6676 10.2872 24.2177 9.39855 25.1051 9.18976C25.9925 8.98096 26.8812 9.53109 27.09 10.4185ZM9 12.2899H20.586C21.1777 12.2717 21.769 12.3351 22.3434 12.4781C22.7881 12.6273 23.195 12.8714 23.5359 13.1936C23.8571 13.526 24.0939 13.9307 24.2262 14.3736C24.3834 14.9435 24.4554 15.5336 24.4396 16.1247V17.0787C24.5129 18.0354 24.2941 18.9918 23.812 19.8214C23.5524 20.1394 23.2312 20.4016 22.8677 20.5925C22.5043 20.7834 22.1061 20.899 21.6969 20.9323L24.835 25.1437H21.2262L18.4019 20.9574H12.226V25.1437H9V12.2899ZM12.226 18.1393H20.0651V18.1142C20.3807 18.149 20.6992 18.0831 20.9751 17.926C21.0678 17.8214 21.1378 17.6989 21.181 17.5661C21.2242 17.4333 21.2396 17.293 21.2262 17.154V16.0682C21.2381 15.9321 21.222 15.7951 21.1788 15.6656C21.1356 15.536 21.0663 15.4167 20.9751 15.315C20.7028 15.1475 20.3835 15.0727 20.0651 15.1016H12.226V18.1393Z" fill="white"/>
</svg>
