<svg width="35" height="36" viewBox="0 0 35 36" fill="none" xmlns="http://www.w3.org/2000/svg">
<circle cx="17.5" cy="17.6455" r="17.5" fill="#121212"/>
<path fill-rule="evenodd" clip-rule="evenodd" d="M26.539 12.9853C26.6757 12.5129 26.539 12.1718 25.8879 12.1718H23.7003C23.4962 12.1579 23.2932 12.2111 23.1217 12.3235C22.9503 12.4359 22.8197 12.6014 22.7497 12.795C22.0725 14.4197 21.1669 15.9377 20.0607 17.3024C19.5529 17.8142 19.3185 17.9585 19.0385 17.9585C18.9018 17.9585 18.7 17.7945 18.7 17.3024V12.9853C18.7 12.4211 18.5372 12.1718 18.0489 12.1718H14.6111C14.4706 12.1646 14.3329 12.2136 14.228 12.3082C14.1232 12.4029 14.0596 12.5354 14.0512 12.6769C14.0512 13.2084 14.8455 13.333 14.9237 14.8289V18.0701C14.9237 18.7852 14.7935 18.9099 14.52 18.9099C13.7778 18.9099 11.9743 16.1674 10.9 13.005C10.6916 12.3948 10.4833 12.1455 9.92335 12.1455H7.74874C7.09766 12.1455 7 12.4408 7 12.7688C7 13.3527 7.73572 16.2461 10.4507 20.0777C12.2607 22.7021 14.8065 24.1127 17.1243 24.1127C18.5176 24.1127 18.6869 23.7978 18.6869 23.2532V21.3112C18.6869 20.6551 18.8171 20.5567 19.2599 20.5567C19.5854 20.5567 20.1388 20.7141 21.441 21.9804C22.9255 23.4697 23.1664 24.1455 23.9998 24.1455H26.1874C26.8385 24.1455 27.125 23.8306 26.9492 23.2073C26.4815 22.2469 25.8564 21.373 25.1001 20.6223C24.5922 20.0187 23.7979 19.3626 23.5961 19.0345C23.3943 18.7065 23.3617 18.4309 23.5961 18.0569C23.5961 18.0569 26.259 14.2713 26.539 12.9919V12.9853Z" fill="white"/>
</svg>
